<?xml version="1.0" encoding="UTF-8" standalone="no"?>
<!DOCTYPE svg PUBLIC "-//W3C//DTD SVG 1.1//EN"
 "http://www.w3.org/Graphics/SVG/1.1/DTD/svg11.dtd">
<!-- Generated by graphviz version 2.40.1 (20161225.0304)
 -->
<!-- Title: controllers_diagram Pages: 1 -->
<svg width="787pt" height="736pt"
 viewBox="0.00 0.00 787.00 736.00" xmlns="http://www.w3.org/2000/svg" xmlns:xlink="http://www.w3.org/1999/xlink">
<g id="graph0" class="graph" transform="scale(1 1) rotate(0) translate(4 732)">
<title>controllers_diagram</title>
<polygon fill="transparent" stroke="transparent" points="-4,4 -4,-732 783,-732 783,4 -4,4"/>
<!-- _diagram_info -->
<g id="node1" class="node">
<title>_diagram_info</title>
<text text-anchor="start" x="450" y="-182.6" font-family="Times,serif" font-size="13.00" fill="#000000">Controllers diagram</text>
<text text-anchor="start" x="450" y="-168.6" font-family="Times,serif" font-size="13.00" fill="#000000">Date: Jul 09 2019 &#45; 19:05</text>
<text text-anchor="start" x="450" y="-154.6" font-family="Times,serif" font-size="13.00" fill="#000000">Migration version: 20190609232923</text>
<text text-anchor="start" x="450" y="-140.6" font-family="Times,serif" font-size="13.00" fill="#000000">Generated by RailRoady 1.5.3</text>
<text text-anchor="start" x="450" y="-126.6" font-family="Times,serif" font-size="13.00" fill="#000000">http://railroady.prestonlee.com</text>
</g>
<!-- HomeController -->
<g id="node2" class="node">
<title>HomeController</title>
<path fill="none" stroke="#000000" d="M454,-.5C454,-.5 536,-.5 536,-.5 542,-.5 548,-6.5 548,-12.5 548,-12.5 548,-81.5 548,-81.5 548,-87.5 542,-93.5 536,-93.5 536,-93.5 454,-93.5 454,-93.5 448,-93.5 442,-87.5 442,-81.5 442,-81.5 442,-12.5 442,-12.5 442,-6.5 448,-.5 454,-.5"/>
<text text-anchor="middle" x="495" y="-78.3" font-family="Times,serif" font-size="14.00" fill="#000000">HomeController</text>
<polyline fill="none" stroke="#000000" points="442,-70.5 548,-70.5 "/>
<text text-anchor="start" x="450" y="-55.3" font-family="Times,serif" font-size="14.00" fill="#000000">index</text>
<polyline fill="none" stroke="#000000" points="442,-47.5 548,-47.5 "/>
<polyline fill="none" stroke="#000000" points="442,-23.5 548,-23.5 "/>
<text text-anchor="start" x="450" y="-8.3" font-family="Times,serif" font-size="14.00" fill="#000000">_layout</text>
</g>
<!-- ProfessorsController -->
<g id="node3" class="node">
<title>ProfessorsController</title>
<path fill="none" stroke="#000000" d="M114,-136.5C114,-136.5 218,-136.5 218,-136.5 224,-136.5 230,-142.5 230,-148.5 230,-148.5 230,-276.5 230,-276.5 230,-282.5 224,-288.5 218,-288.5 218,-288.5 114,-288.5 114,-288.5 108,-288.5 102,-282.5 102,-276.5 102,-276.5 102,-148.5 102,-148.5 102,-142.5 108,-136.5 114,-136.5"/>
<text text-anchor="middle" x="166" y="-273.3" font-family="Times,serif" font-size="14.00" fill="#000000">ProfessorsController</text>
<polyline fill="none" stroke="#000000" points="102,-265.5 230,-265.5 "/>
<text text-anchor="start" x="110" y="-250.3" font-family="Times,serif" font-size="14.00" fill="#000000">create</text>
<text text-anchor="start" x="110" y="-235.3" font-family="Times,serif" font-size="14.00" fill="#000000">identityconfirmation</text>
<text text-anchor="start" x="110" y="-220.3" font-family="Times,serif" font-size="14.00" fill="#000000">index</text>
<text text-anchor="start" x="110" y="-205.3" font-family="Times,serif" font-size="14.00" fill="#000000">new</text>
<text text-anchor="start" x="110" y="-190.3" font-family="Times,serif" font-size="14.00" fill="#000000">update</text>
<polyline fill="none" stroke="#000000" points="102,-182.5 230,-182.5 "/>
<text text-anchor="start" x="110" y="-167.3" font-family="Times,serif" font-size="14.00" fill="#000000">professor_params</text>
<polyline fill="none" stroke="#000000" points="102,-159.5 230,-159.5 "/>
<text text-anchor="start" x="110" y="-144.3" font-family="Times,serif" font-size="14.00" fill="#000000">_layout</text>
</g>
<!-- DisciplinasController -->
<g id="node4" class="node">
<title>DisciplinasController</title>
<path fill="none" stroke="#000000" d="M505,-493.5C505,-493.5 614,-493.5 614,-493.5 620,-493.5 626,-499.5 626,-505.5 626,-505.5 626,-694.5 626,-694.5 626,-700.5 620,-706.5 614,-706.5 614,-706.5 505,-706.5 505,-706.5 499,-706.5 493,-700.5 493,-694.5 493,-694.5 493,-505.5 493,-505.5 493,-499.5 499,-493.5 505,-493.5"/>
<text text-anchor="middle" x="559.5" y="-691.3" font-family="Times,serif" font-size="14.00" fill="#000000">DisciplinasController</text>
<polyline fill="none" stroke="#000000" points="493,-683.5 626,-683.5 "/>
<text text-anchor="start" x="501" y="-668.3" font-family="Times,serif" font-size="14.00" fill="#000000">create</text>
<text text-anchor="start" x="501" y="-653.3" font-family="Times,serif" font-size="14.00" fill="#000000">destroy</text>
<text text-anchor="start" x="501" y="-638.3" font-family="Times,serif" font-size="14.00" fill="#000000">edit</text>
<text text-anchor="start" x="501" y="-623.3" font-family="Times,serif" font-size="14.00" fill="#000000">new</text>
<text text-anchor="start" x="501" y="-608.3" font-family="Times,serif" font-size="14.00" fill="#000000">update</text>
<polyline fill="none" stroke="#000000" points="493,-600.5 626,-600.5 "/>
<polyline fill="none" stroke="#000000" points="493,-576.5 626,-576.5 "/>
<text text-anchor="start" x="501" y="-561.3" font-family="Times,serif" font-size="14.00" fill="#000000">_layout</text>
<text text-anchor="start" x="501" y="-546.3" font-family="Times,serif" font-size="14.00" fill="#000000">disciplina_params</text>
<text text-anchor="start" x="501" y="-531.3" font-family="Times,serif" font-size="14.00" fill="#000000">find_disciplina</text>
<text text-anchor="start" x="501" y="-516.3" font-family="Times,serif" font-size="14.00" fill="#000000">is_admin</text>
<text text-anchor="start" x="501" y="-501.3" font-family="Times,serif" font-size="14.00" fill="#000000">logged_in</text>
</g>
<!-- FaqController -->
<g id="node5" class="node">
<title>FaqController</title>
<path fill="none" stroke="#000000" d="M165,-17.5C165,-17.5 233,-17.5 233,-17.5 239,-17.5 245,-23.5 245,-29.5 245,-29.5 245,-98.5 245,-98.5 245,-104.5 239,-110.5 233,-110.5 233,-110.5 165,-110.5 165,-110.5 159,-110.5 153,-104.5 153,-98.5 153,-98.5 153,-29.5 153,-29.5 153,-23.5 159,-17.5 165,-17.5"/>
<text text-anchor="middle" x="199" y="-95.3" font-family="Times,serif" font-size="14.00" fill="#000000">FaqController</text>
<polyline fill="none" stroke="#000000" points="153,-87.5 245,-87.5 "/>
<text text-anchor="start" x="161" y="-72.3" font-family="Times,serif" font-size="14.00" fill="#000000">index</text>
<polyline fill="none" stroke="#000000" points="153,-64.5 245,-64.5 "/>
<polyline fill="none" stroke="#000000" points="153,-40.5 245,-40.5 "/>
<text text-anchor="start" x="161" y="-25.3" font-family="Times,serif" font-size="14.00" fill="#000000">_layout</text>
</g>
<!-- ResetSenhasController -->
<g id="node6" class="node">
<title>ResetSenhasController</title>
<path fill="none" stroke="#000000" d="M335,-527.5C335,-527.5 451,-527.5 451,-527.5 457,-527.5 463,-533.5 463,-539.5 463,-539.5 463,-713.5 463,-713.5 463,-719.5 457,-725.5 451,-725.5 451,-725.5 335,-725.5 335,-725.5 329,-725.5 323,-719.5 323,-713.5 323,-713.5 323,-539.5 323,-539.5 323,-533.5 329,-527.5 335,-527.5"/>
<text text-anchor="middle" x="393" y="-710.3" font-family="Times,serif" font-size="14.00" fill="#000000">ResetSenhasController</text>
<polyline fill="none" stroke="#000000" points="323,-702.5 463,-702.5 "/>
<text text-anchor="start" x="331" y="-687.3" font-family="Times,serif" font-size="14.00" fill="#000000">create</text>
<text text-anchor="start" x="331" y="-672.3" font-family="Times,serif" font-size="14.00" fill="#000000">edit</text>
<text text-anchor="start" x="331" y="-657.3" font-family="Times,serif" font-size="14.00" fill="#000000">new</text>
<text text-anchor="start" x="331" y="-642.3" font-family="Times,serif" font-size="14.00" fill="#000000">update</text>
<polyline fill="none" stroke="#000000" points="323,-634.5 463,-634.5 "/>
<polyline fill="none" stroke="#000000" points="323,-610.5 463,-610.5 "/>
<text text-anchor="start" x="331" y="-595.3" font-family="Times,serif" font-size="14.00" fill="#000000">_layout</text>
<text text-anchor="start" x="331" y="-580.3" font-family="Times,serif" font-size="14.00" fill="#000000">check_expiration</text>
<text text-anchor="start" x="331" y="-565.3" font-family="Times,serif" font-size="14.00" fill="#000000">get_user</text>
<text text-anchor="start" x="331" y="-550.3" font-family="Times,serif" font-size="14.00" fill="#000000">user_params</text>
<text text-anchor="start" x="331" y="-535.3" font-family="Times,serif" font-size="14.00" fill="#000000">valid_user</text>
</g>
<!-- DadosBancariosController -->
<g id="node7" class="node">
<title>DadosBancariosController</title>
<path fill="none" stroke="#000000" d="M148,-544.5C148,-544.5 285,-544.5 285,-544.5 291,-544.5 297,-550.5 297,-556.5 297,-556.5 297,-715.5 297,-715.5 297,-721.5 291,-727.5 285,-727.5 285,-727.5 148,-727.5 148,-727.5 142,-727.5 136,-721.5 136,-715.5 136,-715.5 136,-556.5 136,-556.5 136,-550.5 142,-544.5 148,-544.5"/>
<text text-anchor="middle" x="216.5" y="-712.3" font-family="Times,serif" font-size="14.00" fill="#000000">DadosBancariosController</text>
<polyline fill="none" stroke="#000000" points="136,-704.5 297,-704.5 "/>
<text text-anchor="start" x="144" y="-689.3" font-family="Times,serif" font-size="14.00" fill="#000000">create</text>
<text text-anchor="start" x="144" y="-674.3" font-family="Times,serif" font-size="14.00" fill="#000000">destroy</text>
<text text-anchor="start" x="144" y="-659.3" font-family="Times,serif" font-size="14.00" fill="#000000">edit</text>
<text text-anchor="start" x="144" y="-644.3" font-family="Times,serif" font-size="14.00" fill="#000000">new</text>
<text text-anchor="start" x="144" y="-629.3" font-family="Times,serif" font-size="14.00" fill="#000000">update</text>
<polyline fill="none" stroke="#000000" points="136,-621.5 297,-621.5 "/>
<polyline fill="none" stroke="#000000" points="136,-597.5 297,-597.5 "/>
<text text-anchor="start" x="144" y="-582.3" font-family="Times,serif" font-size="14.00" fill="#000000">_layout</text>
<text text-anchor="start" x="144" y="-567.3" font-family="Times,serif" font-size="14.00" fill="#000000">dados_bancarios_params</text>
<text text-anchor="start" x="144" y="-552.3" font-family="Times,serif" font-size="14.00" fill="#000000">user_logged</text>
</g>
<!-- SobreController -->
<g id="node8" class="node">
<title>SobreController</title>
<path fill="none" stroke="#000000" d="M590,-.5C590,-.5 670,-.5 670,-.5 676,-.5 682,-6.5 682,-12.5 682,-12.5 682,-81.5 682,-81.5 682,-87.5 676,-93.5 670,-93.5 670,-93.5 590,-93.5 590,-93.5 584,-93.5 578,-87.5 578,-81.5 578,-81.5 578,-12.5 578,-12.5 578,-6.5 584,-.5 590,-.5"/>
<text text-anchor="middle" x="630" y="-78.3" font-family="Times,serif" font-size="14.00" fill="#000000">SobreController</text>
<polyline fill="none" stroke="#000000" points="578,-70.5 682,-70.5 "/>
<text text-anchor="start" x="586" y="-55.3" font-family="Times,serif" font-size="14.00" fill="#000000">index</text>
<polyline fill="none" stroke="#000000" points="578,-47.5 682,-47.5 "/>
<polyline fill="none" stroke="#000000" points="578,-23.5 682,-23.5 "/>
<text text-anchor="start" x="586" y="-8.3" font-family="Times,serif" font-size="14.00" fill="#000000">_layout</text>
</g>
<!-- UsersController -->
<g id="node9" class="node">
<title>UsersController</title>
<path fill="none" stroke="#000000" d="M675,-578.5C675,-578.5 754,-578.5 754,-578.5 760,-578.5 766,-584.5 766,-590.5 766,-590.5 766,-704.5 766,-704.5 766,-710.5 760,-716.5 754,-716.5 754,-716.5 675,-716.5 675,-716.5 669,-716.5 663,-710.5 663,-704.5 663,-704.5 663,-590.5 663,-590.5 663,-584.5 669,-578.5 675,-578.5"/>
<text text-anchor="middle" x="714.5" y="-701.3" font-family="Times,serif" font-size="14.00" fill="#000000">UsersController</text>
<polyline fill="none" stroke="#000000" points="663,-693.5 766,-693.5 "/>
<text text-anchor="start" x="671" y="-678.3" font-family="Times,serif" font-size="14.00" fill="#000000">create</text>
<text text-anchor="start" x="671" y="-663.3" font-family="Times,serif" font-size="14.00" fill="#000000">new</text>
<text text-anchor="start" x="671" y="-648.3" font-family="Times,serif" font-size="14.00" fill="#000000">update</text>
<polyline fill="none" stroke="#000000" points="663,-640.5 766,-640.5 "/>
<polyline fill="none" stroke="#000000" points="663,-616.5 766,-616.5 "/>
<text text-anchor="start" x="671" y="-601.3" font-family="Times,serif" font-size="14.00" fill="#000000">_layout</text>
<text text-anchor="start" x="671" y="-586.3" font-family="Times,serif" font-size="14.00" fill="#000000">user_params</text>
</g>
<!-- SessionsController -->
<g id="node10" class="node">
<title>SessionsController</title>
<path fill="none" stroke="#000000" d="M624,-238.5C624,-238.5 719,-238.5 719,-238.5 725,-238.5 731,-244.5 731,-250.5 731,-250.5 731,-364.5 731,-364.5 731,-370.5 725,-376.5 719,-376.5 719,-376.5 624,-376.5 624,-376.5 618,-376.5 612,-370.5 612,-364.5 612,-364.5 612,-250.5 612,-250.5 612,-244.5 618,-238.5 624,-238.5"/>
<text text-anchor="middle" x="671.5" y="-361.3" font-family="Times,serif" font-size="14.00" fill="#000000">SessionsController</text>
<polyline fill="none" stroke="#000000" points="612,-353.5 731,-353.5 "/>
<text text-anchor="start" x="620" y="-338.3" font-family="Times,serif" font-size="14.00" fill="#000000">create</text>
<text text-anchor="start" x="620" y="-323.3" font-family="Times,serif" font-size="14.00" fill="#000000">destroy</text>
<text text-anchor="start" x="620" y="-308.3" font-family="Times,serif" font-size="14.00" fill="#000000">login_params</text>
<text text-anchor="start" x="620" y="-293.3" font-family="Times,serif" font-size="14.00" fill="#000000">new</text>
<polyline fill="none" stroke="#000000" points="612,-285.5 731,-285.5 "/>
<polyline fill="none" stroke="#000000" points="612,-261.5 731,-261.5 "/>
<text text-anchor="start" x="620" y="-246.3" font-family="Times,serif" font-size="14.00" fill="#000000">_layout</text>
</g>
<!-- AdminsController -->
<g id="node11" class="node">
<title>AdminsController</title>
<path fill="none" stroke="#000000" d="M675,-408.5C675,-408.5 767,-408.5 767,-408.5 773,-408.5 779,-414.5 779,-420.5 779,-420.5 779,-534.5 779,-534.5 779,-540.5 773,-546.5 767,-546.5 767,-546.5 675,-546.5 675,-546.5 669,-546.5 663,-540.5 663,-534.5 663,-534.5 663,-420.5 663,-420.5 663,-414.5 669,-408.5 675,-408.5"/>
<text text-anchor="middle" x="721" y="-531.3" font-family="Times,serif" font-size="14.00" fill="#000000">AdminsController</text>
<polyline fill="none" stroke="#000000" points="663,-523.5 779,-523.5 "/>
<text text-anchor="start" x="671" y="-508.3" font-family="Times,serif" font-size="14.00" fill="#000000">admin_params</text>
<text text-anchor="start" x="671" y="-493.3" font-family="Times,serif" font-size="14.00" fill="#000000">create</text>
<text text-anchor="start" x="671" y="-478.3" font-family="Times,serif" font-size="14.00" fill="#000000">index</text>
<text text-anchor="start" x="671" y="-463.3" font-family="Times,serif" font-size="14.00" fill="#000000">new</text>
<polyline fill="none" stroke="#000000" points="663,-455.5 779,-455.5 "/>
<polyline fill="none" stroke="#000000" points="663,-431.5 779,-431.5 "/>
<text text-anchor="start" x="671" y="-416.3" font-family="Times,serif" font-size="14.00" fill="#000000">_layout</text>
</g>
<!-- MonitoriasController -->
<g id="node12" class="node">
<title>MonitoriasController</title>
<path fill="none" stroke="#000000" d="M454,-238.5C454,-238.5 562,-238.5 562,-238.5 568,-238.5 574,-244.5 574,-250.5 574,-250.5 574,-454.5 574,-454.5 574,-460.5 568,-466.5 562,-466.5 562,-466.5 454,-466.5 454,-466.5 448,-466.5 442,-460.5 442,-454.5 442,-454.5 442,-250.5 442,-250.5 442,-244.5 448,-238.5 454,-238.5"/>
<text text-anchor="middle" x="508" y="-451.3" font-family="Times,serif" font-size="14.00" fill="#000000">MonitoriasController</text>
<polyline fill="none" stroke="#000000" points="442,-443.5 574,-443.5 "/>
<text text-anchor="start" x="450" y="-428.3" font-family="Times,serif" font-size="14.00" fill="#000000">create</text>
<text text-anchor="start" x="450" y="-413.3" font-family="Times,serif" font-size="14.00" fill="#000000">destroy</text>
<text text-anchor="start" x="450" y="-398.3" font-family="Times,serif" font-size="14.00" fill="#000000">edit</text>
<text text-anchor="start" x="450" y="-383.3" font-family="Times,serif" font-size="14.00" fill="#000000">new</text>
<text text-anchor="start" x="450" y="-368.3" font-family="Times,serif" font-size="14.00" fill="#000000">show</text>
<text text-anchor="start" x="450" y="-353.3" font-family="Times,serif" font-size="14.00" fill="#000000">update</text>
<polyline fill="none" stroke="#000000" points="442,-345.5 574,-345.5 "/>
<polyline fill="none" stroke="#000000" points="442,-321.5 574,-321.5 "/>
<text text-anchor="start" x="450" y="-306.3" font-family="Times,serif" font-size="14.00" fill="#000000">_layout</text>
<text text-anchor="start" x="450" y="-291.3" font-family="Times,serif" font-size="14.00" fill="#000000">find_monitor</text>
<text text-anchor="start" x="450" y="-276.3" font-family="Times,serif" font-size="14.00" fill="#000000">find_monitoria</text>
<text text-anchor="start" x="450" y="-261.3" font-family="Times,serif" font-size="14.00" fill="#000000">logged_in</text>
<text text-anchor="start" x="450" y="-246.3" font-family="Times,serif" font-size="14.00" fill="#000000">monitoria_params</text>
</g>
<!-- ApplicationController -->
<g id="node13" class="node">
<title>ApplicationController</title>
<path fill="none" stroke="#000000" d="M284,-34.5C284,-34.5 396,-34.5 396,-34.5 402,-34.5 408,-40.5 408,-46.5 408,-46.5 408,-116.5 408,-116.5 408,-122.5 402,-128.5 396,-128.5 396,-128.5 284,-128.5 284,-128.5 278,-128.5 272,-122.5 272,-116.5 272,-116.5 272,-46.5 272,-46.5 272,-40.5 278,-34.5 284,-34.5"/>
<text text-anchor="middle" x="340" y="-113.3" font-family="Times,serif" font-size="14.00" fill="#000000">ApplicationController</text>
<polyline fill="none" stroke="#000000" points="272,-105.5 408,-105.5 "/>
<polyline fill="none" stroke="#000000" points="272,-81.5 408,-81.5 "/>
<polyline fill="none" stroke="#000000" points="272,-57.5 408,-57.5 "/>
<text text-anchor="start" x="280" y="-42.3" font-family="Times,serif" font-size="14.00" fill="#000000">_layout</text>
</g>
<!-- TurmasController -->
<g id="node14" class="node">
<title>TurmasController</title>
<path fill="none" stroke="#000000" d="M131,-323.5C131,-323.5 221,-323.5 221,-323.5 227,-323.5 233,-329.5 233,-335.5 233,-335.5 233,-494.5 233,-494.5 233,-500.5 227,-506.5 221,-506.5 221,-506.5 131,-506.5 131,-506.5 125,-506.5 119,-500.5 119,-494.5 119,-494.5 119,-335.5 119,-335.5 119,-329.5 125,-323.5 131,-323.5"/>
<text text-anchor="middle" x="176" y="-491.3" font-family="Times,serif" font-size="14.00" fill="#000000">TurmasController</text>
<polyline fill="none" stroke="#000000" points="119,-483.5 233,-483.5 "/>
<text text-anchor="start" x="127" y="-468.3" font-family="Times,serif" font-size="14.00" fill="#000000">create</text>
<text text-anchor="start" x="127" y="-453.3" font-family="Times,serif" font-size="14.00" fill="#000000">destroy</text>
<text text-anchor="start" x="127" y="-438.3" font-family="Times,serif" font-size="14.00" fill="#000000">edit</text>
<text text-anchor="start" x="127" y="-423.3" font-family="Times,serif" font-size="14.00" fill="#000000">new</text>
<text text-anchor="start" x="127" y="-408.3" font-family="Times,serif" font-size="14.00" fill="#000000">update</text>
<polyline fill="none" stroke="#000000" points="119,-400.5 233,-400.5 "/>
<polyline fill="none" stroke="#000000" points="119,-376.5 233,-376.5 "/>
<text text-anchor="start" x="127" y="-361.3" font-family="Times,serif" font-size="14.00" fill="#000000">_layout</text>
<text text-anchor="start" x="127" y="-346.3" font-family="Times,serif" font-size="14.00" fill="#000000">find_turma</text>
<text text-anchor="start" x="127" y="-331.3" font-family="Times,serif" font-size="14.00" fill="#000000">turma_params</text>
</g>
<!-- DashboardController -->
<g id="node15" class="node">
<title>DashboardController</title>
<path fill="none" stroke="#000000" d="M284,-170.5C284,-170.5 392,-170.5 392,-170.5 398,-170.5 404,-176.5 404,-182.5 404,-182.5 404,-476.5 404,-476.5 404,-482.5 398,-488.5 392,-488.5 392,-488.5 284,-488.5 284,-488.5 278,-488.5 272,-482.5 272,-476.5 272,-476.5 272,-182.5 272,-182.5 272,-176.5 278,-170.5 284,-170.5"/>
<text text-anchor="middle" x="338" y="-473.3" font-family="Times,serif" font-size="14.00" fill="#000000">DashboardController</text>
<polyline fill="none" stroke="#000000" points="272,-465.5 404,-465.5 "/>
<text text-anchor="start" x="280" y="-450.3" font-family="Times,serif" font-size="14.00" fill="#000000">apagar_alunos</text>
<text text-anchor="start" x="280" y="-435.3" font-family="Times,serif" font-size="14.00" fill="#000000">dados_bancarios</text>
<text text-anchor="start" x="280" y="-420.3" font-family="Times,serif" font-size="14.00" fill="#000000">deletar_aluno</text>
<text text-anchor="start" x="280" y="-405.3" font-family="Times,serif" font-size="14.00" fill="#000000">disciplinas</text>
<text text-anchor="start" x="280" y="-390.3" font-family="Times,serif" font-size="14.00" fill="#000000">edit_user</text>
<text text-anchor="start" x="280" y="-375.3" font-family="Times,serif" font-size="14.00" fill="#000000">historico</text>
<text text-anchor="start" x="280" y="-360.3" font-family="Times,serif" font-size="14.00" fill="#000000">importar_professores</text>
<text text-anchor="start" x="280" y="-345.3" font-family="Times,serif" font-size="14.00" fill="#000000">index</text>
<text text-anchor="start" x="280" y="-330.3" font-family="Times,serif" font-size="14.00" fill="#000000">monitorias</text>
<text text-anchor="start" x="280" y="-315.3" font-family="Times,serif" font-size="14.00" fill="#000000">scrape_professores</text>
<text text-anchor="start" x="280" y="-300.3" font-family="Times,serif" font-size="14.00" fill="#000000">turmas</text>
<polyline fill="none" stroke="#000000" points="272,-292.5 404,-292.5 "/>
<polyline fill="none" stroke="#000000" points="272,-268.5 404,-268.5 "/>
<text text-anchor="start" x="280" y="-253.3" font-family="Times,serif" font-size="14.00" fill="#000000">_layout</text>
<text text-anchor="start" x="280" y="-238.3" font-family="Times,serif" font-size="14.00" fill="#000000">generate_password</text>
<text text-anchor="start" x="280" y="-223.3" font-family="Times,serif" font-size="14.00" fill="#000000">match_role</text>
<text text-anchor="start" x="280" y="-208.3" font-family="Times,serif" font-size="14.00" fill="#000000">user_logged</text>
<text text-anchor="start" x="280" y="-193.3" font-family="Times,serif" font-size="14.00" fill="#000000">valid_email?</text>
<text text-anchor="start" x="280" y="-178.3" font-family="Times,serif" font-size="14.00" fill="#000000">web_scraper</text>
</g>
<!-- HistoricoController -->
<g id="node16" class="node">
<title>HistoricoController</title>
<path fill="none" stroke="#000000" d="M12,-.5C12,-.5 110,-.5 110,-.5 116,-.5 122,-6.5 122,-12.5 122,-12.5 122,-82.5 122,-82.5 122,-88.5 116,-94.5 110,-94.5 110,-94.5 12,-94.5 12,-94.5 6,-94.5 0,-88.5 0,-82.5 0,-82.5 0,-12.5 0,-12.5 0,-6.5 6,-.5 12,-.5"/>
<text text-anchor="middle" x="61" y="-79.3" font-family="Times,serif" font-size="14.00" fill="#000000">HistoricoController</text>
<polyline fill="none" stroke="#000000" points="0,-71.5 122,-71.5 "/>
<polyline fill="none" stroke="#000000" points="0,-47.5 122,-47.5 "/>
<polyline fill="none" stroke="#000000" points="0,-23.5 122,-23.5 "/>
<text text-anchor="start" x="8" y="-8.3" font-family="Times,serif" font-size="14.00" fill="#000000">_layout</text>
</g>
</g>
</svg>
