<?xml version="1.0" encoding="UTF-8" standalone="no"?>
<!DOCTYPE svg PUBLIC "-//W3C//DTD SVG 1.1//EN"
 "http://www.w3.org/Graphics/SVG/1.1/DTD/svg11.dtd">
<!-- Generated by graphviz version 2.40.1 (20161225.0304)
 -->
<!-- Title: models_diagram Pages: 1 -->
<svg width="1781pt" height="235pt"
 viewBox="0.00 0.00 1781.34 235.00" xmlns="http://www.w3.org/2000/svg" xmlns:xlink="http://www.w3.org/1999/xlink">
<g id="graph0" class="graph" transform="scale(1 1) rotate(0) translate(4 231)">
<title>models_diagram</title>
<polygon fill="transparent" stroke="transparent" points="-4,4 -4,-231 1777.3431,-231 1777.3431,4 -4,4"/>
<!-- _diagram_info -->
<g id="node1" class="node">
<title>_diagram_info</title>
<text text-anchor="start" x="8" y="-138.1" font-family="Times,serif" font-size="13.00" fill="#000000">Models diagram</text>
<text text-anchor="start" x="8" y="-124.1" font-family="Times,serif" font-size="13.00" fill="#000000">Date: Jul 09 2019 &#45; 19:05</text>
<text text-anchor="start" x="8" y="-110.1" font-family="Times,serif" font-size="13.00" fill="#000000">Migration version: 20190609232923</text>
<text text-anchor="start" x="8" y="-96.1" font-family="Times,serif" font-size="13.00" fill="#000000">Generated by RailRoady 1.5.3</text>
<text text-anchor="start" x="8" y="-82.1" font-family="Times,serif" font-size="13.00" fill="#000000">http://railroady.prestonlee.com</text>
</g>
<!-- Disciplina -->
<g id="node2" class="node">
<title>Disciplina</title>
<path fill="none" stroke="#000000" d="M243.5,-45.5C243.5,-45.5 396.5,-45.5 396.5,-45.5 402.5,-45.5 408.5,-51.5 408.5,-57.5 408.5,-57.5 408.5,-169.5 408.5,-169.5 408.5,-175.5 402.5,-181.5 396.5,-181.5 396.5,-181.5 243.5,-181.5 243.5,-181.5 237.5,-181.5 231.5,-175.5 231.5,-169.5 231.5,-169.5 231.5,-57.5 231.5,-57.5 231.5,-51.5 237.5,-45.5 243.5,-45.5"/>
<text text-anchor="middle" x="320" y="-166.3" font-family="Times,serif" font-size="14.00" fill="#000000">Disciplina</text>
<polyline fill="none" stroke="#000000" points="231.5,-158.5 408.5,-158.5 "/>
<text text-anchor="start" x="239.5" y="-143.3" font-family="Times,serif" font-size="14.00" fill="#000000">cod_disciplina :integer</text>
<text text-anchor="start" x="239.5" y="-128.3" font-family="Times,serif" font-size="14.00" fill="#000000">nome :varchar</text>
<text text-anchor="start" x="239.5" y="-113.3" font-family="Times,serif" font-size="14.00" fill="#000000">fk_tipo_disciplina_id :integer</text>
<text text-anchor="start" x="239.5" y="-98.3" font-family="Times,serif" font-size="14.00" fill="#000000">c_prat :integer</text>
<text text-anchor="start" x="239.5" y="-83.3" font-family="Times,serif" font-size="14.00" fill="#000000">c_teor :integer</text>
<text text-anchor="start" x="239.5" y="-68.3" font-family="Times,serif" font-size="14.00" fill="#000000">c_est :integer</text>
<text text-anchor="start" x="239.5" y="-53.3" font-family="Times,serif" font-size="14.00" fill="#000000">c_ext :integer</text>
</g>
<!-- Turma -->
<g id="node3" class="node">
<title>Turma</title>
<path fill="none" stroke="#000000" d="M438.5,-45.5C438.5,-45.5 581.5,-45.5 581.5,-45.5 587.5,-45.5 593.5,-51.5 593.5,-57.5 593.5,-57.5 593.5,-169.5 593.5,-169.5 593.5,-175.5 587.5,-181.5 581.5,-181.5 581.5,-181.5 438.5,-181.5 438.5,-181.5 432.5,-181.5 426.5,-175.5 426.5,-169.5 426.5,-169.5 426.5,-57.5 426.5,-57.5 426.5,-51.5 432.5,-45.5 438.5,-45.5"/>
<text text-anchor="middle" x="510" y="-166.3" font-family="Times,serif" font-size="14.00" fill="#000000">Turma</text>
<polyline fill="none" stroke="#000000" points="426.5,-158.5 593.5,-158.5 "/>
<text text-anchor="start" x="434.5" y="-143.3" font-family="Times,serif" font-size="14.00" fill="#000000">id :integer</text>
<text text-anchor="start" x="434.5" y="-128.3" font-family="Times,serif" font-size="14.00" fill="#000000">turma :varchar</text>
<text text-anchor="start" x="434.5" y="-113.3" font-family="Times,serif" font-size="14.00" fill="#000000">professor :varchar</text>
<text text-anchor="start" x="434.5" y="-98.3" font-family="Times,serif" font-size="14.00" fill="#000000">fk_cod_disciplina :integer</text>
<text text-anchor="start" x="434.5" y="-83.3" font-family="Times,serif" font-size="14.00" fill="#000000">fk_status_turma_id :integer</text>
<text text-anchor="start" x="434.5" y="-68.3" font-family="Times,serif" font-size="14.00" fill="#000000">qnt_bolsas :integer</text>
<text text-anchor="start" x="434.5" y="-53.3" font-family="Times,serif" font-size="14.00" fill="#000000">fk_vagas_id :integer</text>
</g>
<!-- Admin -->
<g id="node4" class="node">
<title>Admin</title>
<path fill="none" stroke="#000000" d="M623.5,-45.5C623.5,-45.5 786.5,-45.5 786.5,-45.5 792.5,-45.5 798.5,-51.5 798.5,-57.5 798.5,-57.5 798.5,-169.5 798.5,-169.5 798.5,-175.5 792.5,-181.5 786.5,-181.5 786.5,-181.5 623.5,-181.5 623.5,-181.5 617.5,-181.5 611.5,-175.5 611.5,-169.5 611.5,-169.5 611.5,-57.5 611.5,-57.5 611.5,-51.5 617.5,-45.5 623.5,-45.5"/>
<text text-anchor="middle" x="705" y="-166.3" font-family="Times,serif" font-size="14.00" fill="#000000">Admin</text>
<polyline fill="none" stroke="#000000" points="611.5,-158.5 798.5,-158.5 "/>
<text text-anchor="start" x="619.5" y="-143.3" font-family="Times,serif" font-size="14.00" fill="#000000">id :integer</text>
<text text-anchor="start" x="619.5" y="-128.3" font-family="Times,serif" font-size="14.00" fill="#000000">name :varchar</text>
<text text-anchor="start" x="619.5" y="-113.3" font-family="Times,serif" font-size="14.00" fill="#000000">email :varchar</text>
<text text-anchor="start" x="619.5" y="-98.3" font-family="Times,serif" font-size="14.00" fill="#000000">password_digest :varchar</text>
<text text-anchor="start" x="619.5" y="-83.3" font-family="Times,serif" font-size="14.00" fill="#000000">remember_token :varchar(100)</text>
<text text-anchor="start" x="619.5" y="-68.3" font-family="Times,serif" font-size="14.00" fill="#000000">created_at :datetime</text>
<text text-anchor="start" x="619.5" y="-53.3" font-family="Times,serif" font-size="14.00" fill="#000000">updated_at :datetime</text>
</g>
<!-- Professor -->
<g id="node5" class="node">
<title>Professor</title>
<path fill="none" stroke="#000000" d="M828.5,-30.5C828.5,-30.5 991.5,-30.5 991.5,-30.5 997.5,-30.5 1003.5,-36.5 1003.5,-42.5 1003.5,-42.5 1003.5,-184.5 1003.5,-184.5 1003.5,-190.5 997.5,-196.5 991.5,-196.5 991.5,-196.5 828.5,-196.5 828.5,-196.5 822.5,-196.5 816.5,-190.5 816.5,-184.5 816.5,-184.5 816.5,-42.5 816.5,-42.5 816.5,-36.5 822.5,-30.5 828.5,-30.5"/>
<text text-anchor="middle" x="910" y="-181.3" font-family="Times,serif" font-size="14.00" fill="#000000">Professor</text>
<polyline fill="none" stroke="#000000" points="816.5,-173.5 1003.5,-173.5 "/>
<text text-anchor="start" x="824.5" y="-158.3" font-family="Times,serif" font-size="14.00" fill="#000000">id :integer</text>
<text text-anchor="start" x="824.5" y="-143.3" font-family="Times,serif" font-size="14.00" fill="#000000">name :varchar</text>
<text text-anchor="start" x="824.5" y="-128.3" font-family="Times,serif" font-size="14.00" fill="#000000">username :varchar</text>
<text text-anchor="start" x="824.5" y="-113.3" font-family="Times,serif" font-size="14.00" fill="#000000">email :varchar</text>
<text text-anchor="start" x="824.5" y="-98.3" font-family="Times,serif" font-size="14.00" fill="#000000">password_digest :varchar</text>
<text text-anchor="start" x="824.5" y="-83.3" font-family="Times,serif" font-size="14.00" fill="#000000">role :integer</text>
<text text-anchor="start" x="824.5" y="-68.3" font-family="Times,serif" font-size="14.00" fill="#000000">remember_token :varchar(100)</text>
<text text-anchor="start" x="824.5" y="-53.3" font-family="Times,serif" font-size="14.00" fill="#000000">created_at :datetime</text>
<text text-anchor="start" x="824.5" y="-38.3" font-family="Times,serif" font-size="14.00" fill="#000000">updated_at :datetime</text>
</g>
<!-- User -->
<g id="node6" class="node">
<title>User</title>
<path fill="none" stroke="#000000" d="M1033.5,-.5C1033.5,-.5 1196.5,-.5 1196.5,-.5 1202.5,-.5 1208.5,-6.5 1208.5,-12.5 1208.5,-12.5 1208.5,-214.5 1208.5,-214.5 1208.5,-220.5 1202.5,-226.5 1196.5,-226.5 1196.5,-226.5 1033.5,-226.5 1033.5,-226.5 1027.5,-226.5 1021.5,-220.5 1021.5,-214.5 1021.5,-214.5 1021.5,-12.5 1021.5,-12.5 1021.5,-6.5 1027.5,-.5 1033.5,-.5"/>
<text text-anchor="middle" x="1115" y="-211.3" font-family="Times,serif" font-size="14.00" fill="#000000">User</text>
<polyline fill="none" stroke="#000000" points="1021.5,-203.5 1208.5,-203.5 "/>
<text text-anchor="start" x="1029.5" y="-188.3" font-family="Times,serif" font-size="14.00" fill="#000000">id :integer</text>
<text text-anchor="start" x="1029.5" y="-173.3" font-family="Times,serif" font-size="14.00" fill="#000000">name :varchar</text>
<text text-anchor="start" x="1029.5" y="-158.3" font-family="Times,serif" font-size="14.00" fill="#000000">email :varchar</text>
<text text-anchor="start" x="1029.5" y="-143.3" font-family="Times,serif" font-size="14.00" fill="#000000">password_digest :varchar</text>
<text text-anchor="start" x="1029.5" y="-128.3" font-family="Times,serif" font-size="14.00" fill="#000000">cpf :varchar(11)</text>
<text text-anchor="start" x="1029.5" y="-113.3" font-family="Times,serif" font-size="14.00" fill="#000000">rg :varchar(11)</text>
<text text-anchor="start" x="1029.5" y="-98.3" font-family="Times,serif" font-size="14.00" fill="#000000">matricula :varchar(11)</text>
<text text-anchor="start" x="1029.5" y="-83.3" font-family="Times,serif" font-size="14.00" fill="#000000">fk_banco :integer</text>
<text text-anchor="start" x="1029.5" y="-68.3" font-family="Times,serif" font-size="14.00" fill="#000000">remember_token :varchar(100)</text>
<text text-anchor="start" x="1029.5" y="-53.3" font-family="Times,serif" font-size="14.00" fill="#000000">created_at :datetime</text>
<text text-anchor="start" x="1029.5" y="-38.3" font-family="Times,serif" font-size="14.00" fill="#000000">updated_at :datetime</text>
<text text-anchor="start" x="1029.5" y="-23.3" font-family="Times,serif" font-size="14.00" fill="#000000">reset_digest :varchar</text>
<text text-anchor="start" x="1029.5" y="-8.3" font-family="Times,serif" font-size="14.00" fill="#000000">reset_sent_at :datetime</text>
</g>
<!-- Monitoria -->
<g id="node7" class="node">
<title>Monitoria</title>
<path fill="none" stroke="#000000" d="M1239,-38C1239,-38 1403,-38 1403,-38 1409,-38 1415,-44 1415,-50 1415,-50 1415,-177 1415,-177 1415,-183 1409,-189 1403,-189 1403,-189 1239,-189 1239,-189 1233,-189 1227,-183 1227,-177 1227,-177 1227,-50 1227,-50 1227,-44 1233,-38 1239,-38"/>
<text text-anchor="middle" x="1321" y="-173.8" font-family="Times,serif" font-size="14.00" fill="#000000">Monitoria</text>
<polyline fill="none" stroke="#000000" points="1227,-166 1415,-166 "/>
<text text-anchor="start" x="1235" y="-150.8" font-family="Times,serif" font-size="14.00" fill="#000000">id :integer</text>
<text text-anchor="start" x="1235" y="-135.8" font-family="Times,serif" font-size="14.00" fill="#000000">remuneracao :varchar(45)</text>
<text text-anchor="start" x="1235" y="-120.8" font-family="Times,serif" font-size="14.00" fill="#000000">fk_matricula :varchar(11)</text>
<text text-anchor="start" x="1235" y="-105.8" font-family="Times,serif" font-size="14.00" fill="#000000">fk_cod_disciplina :integer</text>
<text text-anchor="start" x="1235" y="-90.8" font-family="Times,serif" font-size="14.00" fill="#000000">fk_turmas_id :integer</text>
<text text-anchor="start" x="1235" y="-75.8" font-family="Times,serif" font-size="14.00" fill="#000000">descricao_status :text</text>
<text text-anchor="start" x="1235" y="-60.8" font-family="Times,serif" font-size="14.00" fill="#000000">prioridade :integer</text>
<text text-anchor="start" x="1235" y="-45.8" font-family="Times,serif" font-size="14.00" fill="#000000">fk_status_monitoria_id :integer</text>
</g>
<!-- DadosBancarios -->
<g id="node8" class="node">
<title>DadosBancarios</title>
<path fill="none" stroke="#000000" d="M1445.5,-68C1445.5,-68 1588.5,-68 1588.5,-68 1594.5,-68 1600.5,-74 1600.5,-80 1600.5,-80 1600.5,-147 1600.5,-147 1600.5,-153 1594.5,-159 1588.5,-159 1588.5,-159 1445.5,-159 1445.5,-159 1439.5,-159 1433.5,-153 1433.5,-147 1433.5,-147 1433.5,-80 1433.5,-80 1433.5,-74 1439.5,-68 1445.5,-68"/>
<text text-anchor="middle" x="1517" y="-143.8" font-family="Times,serif" font-size="14.00" fill="#000000">DadosBancarios</text>
<polyline fill="none" stroke="#000000" points="1433.5,-136 1600.5,-136 "/>
<text text-anchor="start" x="1441.5" y="-120.8" font-family="Times,serif" font-size="14.00" fill="#000000">id :integer</text>
<text text-anchor="start" x="1441.5" y="-105.8" font-family="Times,serif" font-size="14.00" fill="#000000">codigo :varchar(11)</text>
<text text-anchor="start" x="1441.5" y="-90.8" font-family="Times,serif" font-size="14.00" fill="#000000">agencia :varchar(11)</text>
<text text-anchor="start" x="1441.5" y="-75.8" font-family="Times,serif" font-size="14.00" fill="#000000">conta_corrente :varchar(11)</text>
</g>
<!-- ApplicationRecord -->
<g id="node9" class="node">
<title>ApplicationRecord</title>
<ellipse fill="none" stroke="#000000" cx="1696" cy="-113.5" rx="77.1866" ry="18"/>
<text text-anchor="middle" x="1696" y="-109.8" font-family="Times,serif" font-size="14.00" fill="#000000">ApplicationRecord</text>
</g>
</g>
</svg>
